<svg xmlns="http://www.w3.org/2000/svg" viewBox="0 0 512 512">
  <circle cx="256" cy="256" r="256" fill="#fff"/>
  <path
    d="M345.043 256c0 22.261-39.866 77.913-89.043 77.913S166.957 278.261 166.957 256c0-49.178 39.866-89.043 89.043-89.043s89.043 39.865 89.043 89.043z"
    fill="#d80027"/>
  <path d="M345.043 256c0 49.178-39.866 89.043-89.043 89.043S166.957 305.178 166.957 256" fill="#0052b4"/>
  <path
    d="m350.442 334.705 23.61-23.61 15.741 15.74-23.61 23.61zm-39.357 39.355 23.61-23.612 15.741 15.741-23.61 23.611zm86.585 7.857 23.611-23.61 15.74 15.74-23.61 23.61zm-39.356 39.361 23.61-23.61 15.741 15.74-23.61 23.611zm15.741-62.965 23.61-23.61 15.741 15.74-23.61 23.61zm-39.346 39.354 23.61-23.61 15.741 15.74-23.61 23.611zm62.969-220.377-62.963-62.963 15.741-15.74 62.962 62.962zm-62.965-15.732-23.61-23.61 15.74-15.74 23.61 23.61zm39.347 39.349-23.61-23.611 15.74-15.74 23.61 23.61zm7.855-86.571-23.61-23.611 15.74-15.741 23.61 23.61zm39.368 39.352-23.611-23.61 15.74-15.741 23.612 23.61zm-330.56 204.63 62.962 62.962-15.74 15.74-62.963-62.961zm62.957 15.732 23.611 23.611-15.74 15.74-23.61-23.61zm-39.35-39.347 23.611 23.611-15.74 15.741-23.611-23.61zm23.613-23.612 62.962 62.963-15.74 15.74-62.963-62.962zM153.684 90.72 90.72 153.683l-15.74-15.741 62.962-62.963zm23.603 23.605-62.963 62.963-15.74-15.741 62.962-62.962zm23.625 23.622-62.962 62.962-15.74-15.74 62.962-62.962z"/>
</svg>